<?xml version="1.0" standalone="no"?>
<!DOCTYPE svg PUBLIC "-//W3C//DTD SVG 20010904//EN"
 "http://www.w3.org/TR/2001/REC-SVG-20010904/DTD/svg10.dtd">
<svg version="1.0" xmlns="http://www.w3.org/2000/svg"
 width="1920.000000pt" height="1080.000000pt" viewBox="0 0 1920.000000 1080.000000"
 preserveAspectRatio="xMidYMid meet">

<g transform="translate(0.000000,1080.000000) scale(0.100000,-0.100000)"
fill="#000000" stroke="none">
<path d="M3780 7308 c0 -18 5 -157 10 -308 5 -151 16 -502 24 -780 9 -278 18
-569 22 -647 l6 -143 52 0 c28 0 148 7 267 17 l216 17 -5 224 c-4 168 -2 223
7 218 6 -4 11 -18 11 -31 0 -19 59 -318 85 -430 3 -17 12 -20 57 -18 62 2 258
39 268 50 4 5 47 159 95 343 49 184 92 339 97 345 4 5 8 -6 9 -25 2 -151 37
-682 45 -689 5 -5 99 -13 208 -17 l199 -7 -6 134 c-4 74 -7 459 -8 857 l-1
722 -340 0 c-262 0 -339 -3 -342 -12 -5 -14 -116 -699 -116 -711 0 -4 -4 -7
-10 -7 -5 0 -10 7 -10 15 0 9 -45 203 -100 433 -55 229 -102 427 -105 439 -5
21 -11 23 -78 24 -39 0 -137 4 -217 8 -80 5 -189 9 -242 10 l-98 1 0 -32z
m504 -24 c16 -2 30 -5 31 -6 2 -2 17 -57 33 -123 30 -119 66 -258 184 -715 33
-129 64 -248 67 -264 6 -26 8 -20 20 40 40 205 52 271 76 399 14 77 32 172 40
210 8 39 21 111 30 160 9 50 20 96 24 103 5 8 84 13 274 17 l267 5 1 -47 c1
-27 3 -84 4 -128 6 -145 6 -1457 1 -1463 -6 -5 -148 -3 -181 3 -11 2 -34 4
-52 4 -36 1 -32 -17 -53 271 -6 80 -12 168 -15 195 -2 28 -7 91 -10 140 -4 50
-8 104 -10 121 -2 16 -6 86 -11 155 l-7 124 -19 -60 c-10 -32 -16 -65 -13 -73
3 -8 0 -10 -7 -6 -7 5 -9 0 -6 -14 4 -12 2 -20 -2 -17 -12 7 -24 -60 -14 -76
4 -7 3 -10 -3 -6 -6 4 -23 -40 -42 -106 -18 -62 -43 -148 -57 -192 -22 -76
-54 -184 -104 -356 l-22 -77 -47 -7 c-25 -3 -55 -9 -66 -11 -11 -3 -36 -7 -55
-10 l-35 -6 -29 129 c-37 167 -35 158 -101 453 -32 140 -61 271 -65 290 l-8
35 -2 -30 c-1 -16 -3 -46 -5 -65 -1 -19 -5 -190 -9 -380 -7 -361 -10 -400 -29
-401 -7 0 -21 -2 -32 -4 -25 -4 -132 -13 -257 -21 l-98 -7 -1 119 c0 65 -2
137 -4 159 -1 22 -5 150 -9 285 -3 135 -8 308 -11 385 -3 77 -7 201 -10 275
-3 74 -8 242 -11 374 l-7 238 219 -7 c120 -4 232 -9 248 -11z"/>
<path d="M3844 7054 c9 -326 15 -522 21 -654 2 -63 7 -236 11 -385 4 -148 8
-281 10 -295 1 -14 3 -74 3 -133 1 -60 4 -106 9 -104 4 3 75 10 157 17 205 16
198 15 200 31 1 8 5 151 9 319 8 365 17 623 22 629 2 2 6 2 8 0 4 -4 30 -110
58 -239 44 -201 149 -668 159 -707 13 -47 14 -47 77 -33 23 6 57 12 74 14 28
3 33 8 45 52 8 27 27 94 43 149 16 55 43 147 60 205 17 58 44 150 60 205 17
55 51 172 76 260 25 88 47 162 50 164 9 9 12 -7 18 -84 4 -44 8 -98 11 -120 2
-22 7 -85 10 -140 3 -55 8 -116 10 -135 3 -19 7 -80 10 -135 4 -55 8 -111 10
-125 3 -25 16 -197 20 -274 l2 -39 120 -5 121 -4 -3 38 c-2 22 -4 382 -6 802
l-3 763 -255 -4 -256 -4 -7 -34 c-4 -19 -14 -70 -22 -114 -9 -44 -18 -93 -21
-110 -4 -16 -15 -75 -25 -130 -17 -93 -39 -208 -76 -400 -8 -44 -16 -84 -18
-90 -1 -5 -6 -31 -11 -57 -12 -78 -24 -63 -59 77 -8 33 -35 139 -59 235 -25
96 -69 265 -97 375 -28 110 -62 242 -76 293 -13 51 -26 102 -27 114 -4 25 8
24 -261 33 l-209 7 7 -228z"/>
<path d="M7480 7310 c-110 -24 -211 -104 -260 -207 -29 -60 -43 -191 -38 -339
4 -95 8 -119 31 -166 36 -74 111 -142 232 -213 350 -204 440 -317 368 -458
-31 -61 -119 -87 -148 -44 -13 21 -14 38 -2 148 9 81 10 126 4 131 -11 6 -416
88 -440 88 -10 0 -20 -52 -40 -207 -15 -115 -27 -236 -27 -270 0 -88 30 -161
95 -232 57 -61 171 -128 200 -117 9 3 14 2 11 -3 -7 -11 67 -21 148 -21 202 1
371 100 446 262 55 120 65 367 21 508 -24 76 -63 146 -79 143 -6 -2 -9 3 -6
11 5 14 -81 83 -97 79 -5 -2 -9 2 -9 9 0 6 -3 9 -6 5 -3 -3 -15 3 -27 13 -11
11 -24 17 -29 14 -4 -3 -8 0 -8 7 0 7 -3 10 -6 7 -3 -3 -17 5 -31 18 -14 13
-28 22 -30 20 -2 -2 -36 28 -76 68 -39 39 -75 70 -80 68 -5 -1 -6 2 -3 7 3 5
-3 29 -14 52 -27 61 -28 206 0 266 24 53 64 68 91 34 31 -38 41 -91 48 -251
l6 -155 167 -19 c92 -11 171 -16 175 -12 5 4 8 87 8 184 0 191 -10 250 -60
357 -25 52 -101 142 -112 131 -3 -3 -20 6 -37 19 -74 56 -270 89 -386 65z
m281 -56 c96 -32 153 -78 196 -161 51 -95 67 -179 68 -340 0 -78 -4 -145 -8
-149 -6 -6 -248 13 -253 19 -1 1 -4 58 -7 127 -11 231 -57 321 -153 304 -67
-12 -98 -85 -98 -229 0 -124 18 -167 108 -259 70 -72 134 -120 224 -167 178
-93 249 -301 205 -599 -23 -157 -116 -269 -273 -325 -61 -22 -92 -26 -170 -27
-119 0 -178 14 -243 56 -90 57 -149 142 -162 234 -5 35 9 181 30 322 2 14 7
51 11 83 3 31 10 59 14 62 7 4 43 -1 125 -19 11 -2 60 -11 108 -20 140 -27
138 -25 131 -93 -3 -32 -9 -81 -13 -109 -18 -125 84 -182 198 -110 66 42 92
165 52 252 -23 50 -86 117 -156 164 -27 18 -52 36 -55 40 -7 8 -159 100 -167
100 -3 0 -35 20 -72 44 -94 63 -151 128 -172 197 -11 38 -13 277 -3 348 16
110 109 224 211 259 89 31 221 29 324 -4z m-50 -731 c13 -16 12 -17 -3 -4 -10
7 -18 15 -18 17 0 8 8 3 21 -13z"/>
<path d="M7438 7239 c-99 -35 -177 -134 -193 -249 -4 -25 -7 -107 -7 -182 -1
-123 2 -141 23 -184 29 -61 94 -123 187 -180 40 -24 76 -44 80 -44 17 0 210
-139 263 -189 68 -66 99 -126 98 -196 0 -104 -57 -182 -150 -206 -40 -11 -50
-10 -85 7 -21 10 -47 34 -58 53 -18 31 -19 42 -9 140 6 58 9 108 7 110 -4 5
-327 71 -331 68 -1 -1 -7 -39 -12 -85 -6 -45 -16 -119 -23 -164 -20 -136 -16
-225 12 -282 66 -131 171 -187 350 -187 111 1 200 21 267 62 54 33 119 114
141 176 28 75 45 219 37 308 -18 199 -78 306 -208 371 -80 41 -181 117 -236
178 -14 16 -32 35 -39 42 -76 78 -91 309 -27 406 66 99 178 77 221 -44 12 -36
16 -58 29 -153 2 -16 4 -62 4 -101 l1 -71 48 -7 c26 -3 72 -9 102 -12 30 -3
58 -8 62 -10 11 -7 21 144 13 224 -10 111 -28 182 -66 252 -42 78 -81 110
-177 143 -98 35 -235 37 -324 6z"/>
<path d="M12219 7267 l-116 -9 -7 -527 c-3 -289 -9 -689 -12 -887 l-7 -361
104 -7 c57 -3 154 -9 214 -12 l110 -6 -6 398 c-4 220 -10 630 -14 912 l-7 512
-72 -2 c-39 0 -123 -5 -187 -11z m222 -101 c0 -33 2 -86 4 -116 1 -30 5 -305
9 -610 3 -305 9 -642 12 -747 l6 -193 -48 0 c-27 0 -100 3 -163 7 l-114 6 7
531 c8 710 17 1160 23 1166 6 6 235 26 251 22 8 -3 12 -26 13 -66z"/>
<path d="M12303 7206 l-113 -9 -1 -141 c0 -77 -2 -168 -4 -201 -1 -33 -6 -344
-10 -691 l-7 -631 99 -6 c54 -4 118 -7 142 -7 l43 0 -6 188 c-3 103 -8 417
-11 697 -5 443 -13 810 -18 810 -1 0 -53 -4 -114 -9z"/>
<path d="M9253 7213 l-123 -4 -1 -287 c0 -158 -4 -557 -8 -887 -5 -359 -5
-602 1 -606 5 -3 73 -11 151 -18 78 -7 153 -14 167 -17 l25 -5 -6 223 c-19
633 -17 654 34 646 35 -5 56 -48 66 -138 14 -117 31 -439 31 -593 l0 -129 48
6 c26 3 103 10 172 16 69 5 144 13 168 16 l42 5 0 123 c0 299 -47 660 -107
831 -33 93 -62 140 -119 197 -87 88 -179 110 -265 65 -49 -26 -125 -117 -107
-128 7 -5 3 -17 -13 -37 -13 -17 -27 -31 -30 -31 -12 -1 -17 71 -19 299 -1
124 -4 243 -5 265 -2 22 -4 62 -4 88 l-1 49 -75 -4 c-41 -2 -76 -6 -79 -9 -6
-6 -14 -441 -22 -1110 -6 -537 -6 -557 12 -562 11 -3 53 -8 94 -12 41 -4 88
-9 103 -11 l29 -5 -6 88 c-3 48 -8 224 -12 390 -6 276 -5 304 11 331 19 32 63
62 90 62 25 0 73 -38 91 -71 30 -60 71 -559 45 -559 -7 0 -11 27 -12 78 0 42
-2 86 -4 97 -1 11 -6 65 -9 121 -7 128 -30 260 -48 277 -19 20 -54 37 -73 37
-9 0 -30 -14 -47 -30 l-30 -31 6 -307 c4 -169 9 -348 12 -398 4 -53 2 -94 -3
-97 -5 -3 -68 0 -139 8 -71 8 -131 15 -133 15 -7 0 17 1701 24 1709 2 2 47 5
99 8 l96 5 1 -79 c1 -43 3 -96 4 -118 2 -22 4 -140 5 -263 2 -122 7 -221 12
-220 4 2 11 164 14 361 6 345 6 357 -12 355 -11 -1 -74 -4 -141 -5z m452 -598
c112 -65 174 -183 224 -422 28 -134 54 -439 56 -638 l0 -80 -45 -6 c-25 -3
-81 -9 -125 -13 -44 -4 -104 -9 -132 -13 l-53 -6 -1 64 c-1 35 -3 90 -5 122
-2 33 0 57 6 57 6 0 11 -15 11 -32 1 -18 3 -46 4 -63 2 -16 3 -51 4 -78 l1
-47 38 4 c20 2 71 7 112 11 41 3 97 8 123 11 l48 6 -6 137 c-16 340 -51 592
-105 747 -37 105 -49 126 -103 178 -54 52 -118 80 -164 71 -39 -7 -108 -47
-136 -78 -9 -11 -20 -18 -23 -14 -13 13 86 92 134 107 38 12 90 3 137 -25z"/>
<path d="M13876 6845 c-26 -24 -26 -26 -26 -164 0 -133 1 -141 24 -168 23 -27
29 -28 133 -33 l108 -5 3 -441 2 -441 26 -24 c25 -24 29 -24 204 -24 175 0
179 0 204 24 24 23 26 31 26 115 0 50 -5 132 -10 181 -5 50 -12 201 -16 336
-7 236 -6 247 12 257 11 5 65 15 121 20 116 12 136 20 159 65 14 26 16 51 11
149 -3 65 -11 126 -16 137 -21 38 -59 41 -506 41 l-432 0 -27 -25z m394 -5 c0
-6 -66 -10 -179 -10 -131 0 -181 -3 -189 -13 -12 -14 -19 -231 -8 -264 9 -27
23 -31 139 -37 48 -2 94 -9 102 -16 17 -14 20 -60 4 -60 -6 0 -9 6 -6 14 13
33 -15 45 -121 48 -141 4 -142 6 -142 177 0 179 -11 171 220 171 113 0 180 -4
180 -10z m30 0 c0 -5 -4 -10 -10 -10 -5 0 -10 5 -10 10 0 6 5 10 10 10 6 0 10
-4 10 -10z m120 -2 c0 -4 -25 -8 -55 -8 -31 0 -55 4 -55 10 0 6 23 10 55 9 30
-1 55 -6 55 -11z m394 -13 c18 -24 17 -16 21 -135 6 -162 -11 -183 -168 -194
-83 -6 -124 -17 -138 -38 -3 -4 -4 -27 -3 -51 1 -23 5 -140 8 -259 4 -119 9
-227 12 -240 2 -13 7 -86 11 -164 l6 -141 -29 -20 c-26 -19 -45 -21 -186 -22
-152 -2 -157 -1 -184 22 l-28 25 -1 411 c0 226 3 411 8 411 4 0 7 -182 7 -405
0 -392 1 -406 20 -425 18 -18 33 -20 185 -20 160 0 165 1 179 23 16 25 15 84
-2 272 -6 66 -14 225 -17 353 -6 246 -6 247 40 267 11 4 31 10 45 12 68 9 98
12 133 13 27 0 45 7 63 25 24 24 25 30 23 134 -2 159 9 151 -210 151 -98 0
-179 4 -179 8 0 5 83 8 185 8 172 -1 185 -2 199 -21z"/>
<path d="M13160 6849 c-80 -16 -97 -27 -103 -67 -15 -92 -18 -198 -8 -226 l11
-29 71 7 c49 5 75 4 85 -5 12 -9 14 -61 14 -298 0 -210 -3 -290 -12 -299 -8
-8 -47 -12 -110 -12 -87 0 -98 -2 -108 -20 -14 -25 -15 -267 -2 -301 12 -30
19 -32 172 -50 102 -11 445 -7 533 7 48 8 52 23 52 179 0 129 -14 190 -44 200
-10 3 -50 1 -88 -5 -48 -8 -78 -8 -96 -1 l-27 11 0 285 c0 341 -5 325 114 325
47 0 77 5 84 13 5 6 13 64 17 127 9 148 6 152 -101 161 -109 10 -399 9 -454
-2z m418 -34 c46 -3 87 -7 92 -10 6 -4 7 -173 1 -207 0 -5 -28 -8 -61 -8 -34
0 -74 -7 -89 -14 -33 -17 -61 -57 -61 -86 0 -11 -4 -20 -10 -20 -16 0 -11 32
10 67 30 49 66 68 135 70 l60 1 5 91 c3 56 1 92 -5 94 -45 16 -460 14 -507 -2
-21 -7 -38 -13 -38 -14 0 -1 -3 -44 -7 -94 l-6 -93 70 0 c60 0 72 -3 92 -24
25 -26 42 -126 22 -126 -6 0 -11 19 -11 44 0 28 -7 52 -19 67 -16 20 -28 23
-92 23 l-74 1 -1 66 c-1 36 1 83 5 105 8 49 35 64 134 71 40 3 73 7 75 8 4 3
167 -3 280 -10z m-118 -365 c0 -5 -4 -10 -10 -10 -5 0 -10 5 -10 10 0 6 5 10
10 10 6 0 10 -4 10 -10z m-177 -272 c-3 -139 -9 -260 -14 -270 -16 -30 -61
-45 -139 -47 -41 -2 -77 -4 -81 -7 -9 -5 -11 -217 -2 -229 5 -5 17 -11 28 -12
144 -15 206 -18 360 -16 99 0 198 5 220 10 35 8 40 12 43 41 3 33 22 46 22 15
0 -33 -12 -62 -27 -67 -45 -18 -308 -25 -478 -13 -147 10 -181 20 -188 53 -7
36 -1 219 7 233 5 7 41 11 95 11 106 0 130 15 132 83 1 23 3 76 4 117 2 41 4
137 4 213 1 75 5 137 10 137 5 0 7 -111 4 -252z m174 197 c0 -30 -4 -55 -9
-55 -4 0 -8 25 -8 55 0 30 4 55 8 55 5 0 9 -25 9 -55z m3 -75 c0 -5 -4 -10
-10 -10 -5 0 -10 5 -10 10 0 6 5 10 10 10 6 0 10 -4 10 -10z m0 -30 c0 -5 -4
-10 -10 -10 -5 0 -10 5 -10 10 0 6 5 10 10 10 6 0 10 -4 10 -10z m0 -170 c0
-176 6 -198 62 -206 40 -7 53 -24 17 -24 -34 0 -78 32 -89 63 -13 39 -13 317
0 317 6 0 10 -57 10 -150z m236 -208 c14 -9 26 -82 13 -82 -5 0 -10 9 -10 20
-1 11 -2 26 -3 33 -1 8 -20 11 -64 9 -67 -3 -88 14 -24 21 67 7 77 7 88 -1z
m24 -132 c0 -22 -4 -40 -8 -40 -5 0 -9 18 -9 40 0 22 4 40 9 40 4 0 8 -18 8
-40z m0 -60 c0 -5 -4 -10 -10 -10 -5 0 -10 5 -10 10 0 6 5 10 10 10 6 0 10 -4
10 -10z"/>
<path d="M16005 6840 c-24 -27 -29 -135 -33 -762 -3 -397 -2 -418 16 -436 17
-17 42 -19 223 -25 112 -4 277 -7 365 -7 145 0 163 2 169 18 4 9 15 81 24 160
15 121 15 144 4 154 -11 9 -62 7 -209 -7 l-195 -18 -22 22 c-22 21 -22 24 -24
458 -1 249 -6 440 -12 446 -5 5 -71 11 -147 14 -134 5 -140 5 -159 -17z m45
-9 c0 -5 -5 -11 -11 -13 -22 -7 -27 -101 -28 -617 -2 -401 1 -531 10 -537 11
-7 101 -10 317 -13 63 -1 102 -5 102 -11 0 -7 -29 -9 -82 -6 -46 3 -140 5
-210 5 -94 1 -130 5 -141 15 -11 12 -13 104 -12 562 2 524 5 583 27 612 12 14
28 16 28 3z m244 -11 c7 -7 11 -147 11 -433 1 -232 4 -431 8 -443 4 -11 19
-27 32 -34 14 -7 25 -17 25 -22 0 -16 -17 -8 -49 22 l-31 30 0 434 c0 386 -2
435 -16 440 -9 3 -60 6 -115 6 -66 0 -99 4 -99 11 0 15 219 4 234 -11z m462
-968 c-10 -108 -11 -115 -26 -120 -9 -3 -11 1 -7 12 7 17 21 148 18 163 -1 10
1 10 -146 -6 -195 -20 -215 -21 -215 -11 0 6 19 11 43 11 23 1 51 3 62 4 11 2
58 6 105 10 47 4 86 8 88 10 1 1 21 2 43 3 l41 2 -6 -78z m-21 -167 c-2 -20
-7 -40 -10 -45 -9 -14 -275 -13 -275 1 0 7 41 10 123 8 68 -1 129 1 135 5 7 4
12 20 12 37 0 16 4 29 10 29 5 0 8 -16 5 -35z"/>
<path d="M15182 6833 c-22 -20 -388 -1183 -379 -1206 10 -27 268 -39 300 -14
9 6 39 83 67 169 l51 157 97 -6 c53 -3 98 -7 99 -7 1 -1 17 -72 34 -157 18
-84 37 -160 42 -166 10 -14 297 -19 297 -5 1 18 -324 1228 -333 1240 -7 8 -46
12 -132 12 -103 0 -126 -3 -143 -17z m262 -22 c4 -5 22 -69 41 -143 34 -131
68 -257 120 -453 15 -55 40 -149 56 -210 16 -60 33 -123 39 -140 5 -16 11 -41
14 -55 2 -14 14 -59 25 -100 33 -117 40 -109 -101 -106 -68 2 -126 4 -129 5
-4 0 -9 16 -11 34 -5 32 -59 291 -62 294 -2 2 -117 12 -175 15 l-55 2 -49
-154 c-27 -85 -55 -162 -63 -170 -11 -11 -40 -14 -141 -11 -70 1 -128 3 -129
4 -4 4 27 115 65 232 21 66 65 203 96 305 31 102 72 232 90 290 19 58 50 159
70 225 21 66 42 126 47 133 12 14 243 17 252 3z"/>
<path d="M15198 6780 c-5 -13 -29 -90 -54 -170 -106 -341 -156 -500 -229 -725
-68 -211 -76 -245 -56 -246 9 0 54 -2 101 -5 132 -8 121 -18 182 172 l52 167
96 -7 c52 -3 109 -6 127 -6 34 0 35 -3 69 -170 5 -24 18 -87 30 -142 l6 -28
113 0 113 0 -24 88 c-14 48 -34 123 -45 167 -12 44 -28 100 -35 125 -7 25 -16
60 -19 79 -3 19 -8 37 -10 41 -4 7 -54 191 -60 221 -2 8 -10 39 -19 67 -8 29
-13 52 -11 52 2 0 -5 26 -16 58 -11 31 -31 104 -45 162 -14 58 -29 110 -33
115 -3 6 -53 10 -115 10 -106 0 -109 -1 -118 -25z m139 -314 c-3 -8 -2 -16 3
-18 4 -2 10 -16 13 -33 3 -16 24 -101 46 -188 43 -167 45 -177 33 -177 -4 0
-25 72 -46 160 -22 88 -41 158 -43 156 -2 -2 10 -63 27 -136 16 -72 30 -134
30 -137 0 -6 -138 2 -145 8 -2 3 13 69 33 147 21 79 41 140 45 136 9 -9 9 3 0
35 -5 19 -11 4 -29 -65 -29 -114 -63 -244 -70 -266 -5 -16 3 -18 70 -18 42 0
76 -4 76 -9 0 -9 -156 -9 -165 0 -2 3 7 48 21 100 14 52 27 102 29 113 3 10
12 44 21 75 9 31 18 64 20 74 7 38 16 57 26 57 5 0 8 -6 5 -14z m73 -406 c0
-5 -4 -10 -10 -10 -5 0 -10 5 -10 10 0 6 5 10 10 10 6 0 10 -4 10 -10z"/>
<path d="M16803 6844 c-7 -3 -13 -12 -13 -19 0 -34 201 -468 275 -596 29 -49
45 -88 45 -110 0 -19 -10 -136 -22 -262 -17 -181 -19 -230 -9 -240 8 -8 64
-13 185 -15 151 -3 174 -2 186 13 12 14 11 54 -3 267 l-17 250 180 348 c99
191 180 351 180 354 0 3 -67 6 -149 6 l-149 0 -108 -170 c-59 -94 -112 -169
-118 -167 -6 2 -41 72 -77 157 -43 101 -74 159 -89 169 -17 12 -56 16 -154 18
-72 1 -137 0 -143 -3z m47 -24 c0 -5 -4 -10 -9 -10 -9 0 9 -48 59 -155 10 -22
33 -71 50 -110 65 -142 115 -242 154 -304 39 -64 63 -161 38 -161 -6 0 -10 12
-8 28 3 35 -12 80 -40 117 -20 27 -158 303 -199 400 -73 170 -82 194 -71 199
19 8 26 6 26 -4z m30 0 c0 -5 -4 -10 -10 -10 -5 0 -10 5 -10 10 0 6 5 10 10
10 6 0 10 -4 10 -10z m210 -5 c10 -6 53 -93 75 -155 31 -83 76 -171 91 -177
21 -8 44 6 64 39 8 15 53 87 100 162 l85 136 122 0 c79 0 123 -4 123 -10 0 -6
-35 -79 -79 -163 -43 -84 -120 -232 -170 -330 l-93 -179 11 -156 c21 -291 22
-316 16 -339 -5 -22 -9 -23 -100 -23 -57 0 -95 4 -95 10 0 6 37 10 90 10 86 0
93 2 92 30 0 38 -18 293 -27 402 -6 67 -5 68 51 175 141 269 283 547 281 549
-1 1 -48 4 -105 7 l-103 6 -27 -42 c-15 -23 -29 -44 -32 -47 -3 -3 -10 -14
-17 -25 -63 -107 -138 -217 -154 -226 -31 -16 -56 -2 -77 44 -54 116 -72 156
-72 163 0 15 -53 124 -61 125 -5 1 -13 3 -19 4 -5 1 -46 3 -90 4 -44 0 -80 5
-80 10 0 10 183 7 200 -4z m54 -792 c-3 -27 -7 -59 -9 -73 -2 -14 -7 -59 -10
-100 -4 -41 -10 -103 -14 -138 -4 -35 -4 -65 -1 -67 4 -2 33 -5 64 -6 31 -1
56 -6 56 -11 0 -5 -24 -8 -52 -7 -93 4 -90 1 -83 88 3 42 8 92 10 111 2 19 6
55 9 80 15 145 19 170 27 170 5 0 6 -21 3 -47z"/>
<path d="M6167 6693 c-4 -76 -10 -267 -13 -425 -4 -159 -10 -288 -14 -288 -10
0 -44 81 -64 150 -34 119 -46 361 -27 540 4 41 6 77 5 79 -2 2 -114 -2 -249
-9 l-245 -13 0 -318 c0 -195 4 -338 11 -371 44 -210 208 -332 475 -354 l85 -7
-6 -66 c-16 -161 -51 -265 -100 -297 -23 -15 -27 -15 -56 2 -44 26 -69 63 -76
112 -3 23 -10 39 -17 37 -6 -2 -78 -11 -160 -21 l-149 -18 6 -70 c15 -164 82
-322 182 -422 50 -50 70 -63 120 -77 226 -62 426 -43 535 50 96 83 170 261
189 458 17 164 31 663 31 1073 l0 364 -64 -4 c-35 -1 -63 0 -61 3 4 5 -250 29
-306 29 l-26 0 -6 -137z m263 80 c136 -10 130 -4 130 -128 0 -63 -4 -105 -10
-105 -6 0 -10 40 -10 100 0 115 11 105 -125 115 -44 3 -105 8 -136 11 l-56 6
-7 -143 c-3 -79 -9 -182 -11 -229 -7 -139 -14 -267 -21 -412 -4 -77 -11 -138
-16 -138 -13 0 -69 40 -90 65 -28 32 -76 135 -92 198 -29 111 -38 213 -34 396
l3 183 -155 -8 c-85 -4 -163 -8 -173 -8 -17 0 -18 -16 -13 -306 5 -327 9 -356
61 -445 45 -77 126 -134 232 -164 86 -23 67 -21 179 -21 l97 0 -6 -117 c-9
-195 -55 -319 -134 -361 -27 -15 -93 -15 -129 -2 -38 15 -91 74 -99 111 -7 30
-7 31 -58 24 -131 -15 -127 -14 -127 -48 0 -58 39 -189 77 -258 41 -75 97
-140 141 -163 81 -42 310 -60 394 -30 99 35 164 110 213 248 38 106 40 114 50
212 4 38 8 83 10 99 2 17 7 161 10 320 4 160 8 313 10 340 2 28 4 132 4 233 1
125 4 182 12 182 17 0 1 -830 -22 -1120 -21 -269 -105 -443 -249 -517 -52 -26
-63 -28 -180 -28 -175 0 -248 23 -325 102 -84 86 -136 204 -165 371 -10 59
-10 59 156 78 l52 6 12 -39 c30 -93 124 -139 212 -102 60 25 114 186 117 354
l2 90 -108 1 c-85 0 -122 5 -172 23 -139 49 -235 146 -268 275 -9 34 -15 154
-19 357 l-6 306 48 6 c27 4 116 9 198 13 l148 7 -6 -44 c-7 -48 -9 -351 -2
-384 2 -11 6 -42 10 -70 10 -75 55 -209 86 -258 15 -24 41 -54 57 -65 l30 -21
7 112 c3 61 8 166 11 232 3 66 7 145 10 175 2 30 7 133 11 229 l7 173 71 -6
c39 -3 109 -9 156 -13z"/>
<path d="M10465 6733 c-48 -18 -120 -61 -113 -69 2 -2 33 6 68 17 114 36 239
18 309 -45 l24 -21 -11 21 c-14 26 -63 69 -104 90 -47 24 -116 27 -173 7z"/>
<path d="M8453 6721 c-261 -94 -375 -431 -292 -865 31 -166 73 -277 126 -336
71 -79 127 -103 249 -108 236 -10 427 101 488 283 18 53 37 175 26 175 -3 0
-44 4 -90 10 -198 23 -175 24 -178 -11 -8 -99 -83 -178 -172 -182 -52 -2 -85
29 -101 96 -23 97 10 470 55 607 21 66 83 76 146 24 47 -40 72 -99 78 -181 3
-45 9 -73 16 -72 6 0 63 8 126 18 l115 17 -2 75 c-4 178 -102 352 -236 420
-100 52 -256 65 -354 30z m228 -22 c139 -30 241 -121 294 -264 24 -64 49 -194
39 -204 -5 -5 -177 -30 -181 -27 -1 1 -5 27 -9 57 -8 70 -24 107 -64 153 -42
47 -83 68 -131 68 -40 -1 -70 -15 -87 -42 -23 -38 -64 -284 -78 -469 -11 -150
24 -283 81 -309 65 -30 171 0 218 61 13 18 32 56 42 85 l17 54 42 -6 c22 -3
67 -8 99 -12 l57 -6 -6 -37 c-23 -140 -93 -237 -215 -300 -162 -83 -352 -77
-457 13 -68 59 -125 207 -157 406 -44 278 14 551 145 680 95 93 217 127 351
99z"/>
<path d="M8493 6676 c-125 -40 -205 -122 -251 -257 -42 -125 -55 -220 -49
-359 5 -118 23 -223 59 -345 38 -127 77 -183 158 -226 39 -20 59 -23 150 -23
90 1 116 5 180 29 93 34 132 62 193 135 22 26 45 87 56 147 9 48 14 45 -104
57 l-50 6 -17 -48 c-25 -69 -78 -127 -135 -146 -173 -59 -256 61 -238 344 6
87 25 217 62 413 3 16 21 44 40 63 28 29 41 34 79 34 106 0 209 -110 216 -232
3 -44 5 -46 28 -42 56 10 76 13 102 13 25 1 26 3 21 39 -24 174 -96 307 -195
358 -92 48 -225 65 -305 40z"/>
<path d="M11450 6710 c-19 -10 -51 -35 -70 -55 l-35 -38 40 26 c86 55 191 59
308 13 l62 -25 -42 38 c-23 20 -59 43 -81 49 -58 18 -141 14 -182 -8z"/>
<path d="M10408 6479 c-111 -26 -250 -135 -301 -235 -30 -60 -57 -147 -57
-187 0 -29 1 -29 23 -13 89 65 161 101 243 122 l27 7 -26 -35 c-83 -108 -72
-261 25 -357 50 -50 112 -75 188 -75 149 1 263 117 262 268 -1 71 -19 121 -63
171 -18 20 -30 37 -28 39 7 7 153 -34 198 -56 25 -12 62 -37 83 -56 l38 -34
-6 33 c-37 197 -155 339 -333 399 -65 21 -201 26 -273 9z"/>
<path d="M11408 6471 c-108 -35 -229 -135 -276 -227 -22 -43 -47 -128 -56
-187 l-5 -37 43 34 c47 39 173 101 226 111 l35 7 -22 -23 c-39 -42 -63 -109
-63 -177 0 -101 43 -180 126 -228 137 -80 299 -34 373 107 30 59 33 70 29 134
-5 76 -21 115 -70 171 -26 29 -29 36 -13 31 11 -3 48 -13 82 -21 73 -18 146
-53 193 -93 l33 -27 -7 36 c-33 177 -145 317 -303 379 -82 32 -244 37 -325 10z"/>
<path d="M11076 5945 c24 -213 162 -372 365 -420 259 -61 502 74 579 323 28
89 25 120 -4 50 -48 -114 -135 -210 -238 -260 -70 -35 -126 -47 -208 -48 -136
0 -262 51 -356 145 -65 64 -96 115 -125 205 l-18 55 5 -50z"/>
<path d="M10051 5950 c-3 -145 113 -318 259 -387 148 -70 318 -70 453 -2 58
30 169 144 201 206 26 51 56 158 56 198 0 11 -11 -10 -24 -47 -48 -134 -158
-251 -284 -298 -171 -65 -392 -17 -528 116 -53 51 -107 145 -123 212 l-9 37
-1 -35z"/>
<path d="M10390 5385 c0 -20 97 -140 161 -199 130 -120 304 -186 492 -186 162
0 293 46 432 153 65 49 215 210 215 230 0 5 -21 -10 -46 -32 -163 -143 -356
-219 -584 -228 -107 -5 -139 -2 -210 16 -136 34 -321 131 -425 223 -19 16 -35
27 -35 23z"/>
<path d="M9978 4653 c12 -2 30 -2 40 0 9 3 -1 5 -23 4 -22 0 -30 -2 -17 -4z"/>
<path d="M9750 4630 c-69 -10 -109 -18 -90 -18 19 0 94 8 165 18 72 9 112 18
90 18 -22 -1 -96 -8 -165 -18z"/>
<path d="M10021 4554 c-12 -53 -20 -98 -18 -101 3 -2 14 40 27 92 12 53 20 98
18 101 -3 2 -15 -39 -27 -92z"/>
<path d="M2035 4620 c-88 -9 -144 -18 -125 -18 19 -1 98 5 175 13 77 8 148 15
157 15 14 0 18 -12 21 -62 l4 -63 -1 65 -1 65 -35 1 c-19 1 -107 -6 -195 -16z"/>
<path d="M3692 4559 c-7 -36 -12 -74 -11 -85 1 -10 7 15 15 56 8 41 12 80 10
85 -1 6 -8 -20 -14 -56z"/>
<path d="M3734 4605 c3 -11 52 -136 109 -278 l104 -258 57 216 c31 120 55 219
53 221 -2 3 -28 -88 -58 -200 -29 -113 -54 -204 -55 -203 -1 1 -48 117 -104
257 -90 226 -125 307 -106 245z"/>
<path d="M9584 4596 c-3 -8 -4 -25 -1 -38 3 -18 5 -16 6 9 1 21 7 33 19 36 16
4 16 5 -1 6 -10 0 -20 -5 -23 -13z"/>
<path d="M1793 4593 c15 -2 39 -2 55 0 15 2 2 4 -28 4 -30 0 -43 -2 -27 -4z"/>
<path d="M1693 4583 c15 -2 37 -2 50 0 12 2 0 4 -28 4 -27 0 -38 -2 -22 -4z"/>
<path d="M1583 4573 c15 -2 39 -2 55 0 15 2 2 4 -28 4 -30 0 -43 -2 -27 -4z"/>
<path d="M4108 4573 c17 -2 47 -2 65 0 17 2 3 4 -33 4 -36 0 -50 -2 -32 -4z"/>
<path d="M1525 4560 c-10 -17 7 -219 20 -236 11 -16 20 -16 130 1 99 15 119
15 126 4 7 -11 9 -9 9 7 l0 20 -126 -20 c-100 -15 -127 -17 -134 -7 -4 7 -11
60 -14 118 -6 83 -5 108 6 114 9 6 9 9 1 9 -6 0 -15 -5 -18 -10z"/>
<path d="M4238 4563 c12 -2 30 -2 40 0 9 3 -1 5 -23 4 -22 0 -30 -2 -17 -4z"/>
<path d="M4063 4545 c-3 -9 -3 -18 -1 -21 3 -3 8 4 11 16 6 23 -1 27 -10 5z"/>
<path d="M4283 4523 c-96 -229 -352 -867 -349 -870 2 -2 45 99 96 224 51 126
134 330 185 456 51 125 91 227 89 227 -3 0 -12 -17 -21 -37z"/>
<path d="M13932 4528 c-71 -16 -43 -18 38 -3 42 7 60 13 40 13 -19 0 -55 -5
-78 -10z"/>
<path d="M16245 4520 c-203 -53 -352 -167 -426 -325 -15 -33 -30 -73 -34 -90
-3 -16 3 -7 13 20 33 89 61 133 123 200 98 104 226 170 387 199 47 9 63 14 42
15 -19 0 -66 -8 -105 -19z"/>
<path d="M9555 4310 c-10 -121 -16 -223 -13 -225 2 -3 13 94 23 215 10 121 16
222 13 225 -2 3 -13 -94 -23 -215z"/>
<path d="M14050 4504 c-6 -14 -10 -27 -10 -30 0 -2 26 -3 58 -2 l57 2 -52 3
c-51 4 -52 5 -43 29 5 13 7 24 5 24 -3 0 -10 -12 -15 -26z"/>
<path d="M16380 4488 c-7 -24 -21 -66 -31 -94 -18 -49 -22 -52 -67 -64 -151
-37 -244 -131 -257 -258 l-5 -47 13 55 c28 123 97 195 221 232 39 11 76 26 82
32 13 13 68 175 62 182 -3 2 -11 -15 -18 -38z"/>
<path d="M13761 4465 c-146 -71 -248 -180 -300 -318 -11 -32 -21 -65 -20 -75
0 -9 8 8 18 38 58 180 192 313 388 385 21 7 31 14 22 14 -8 1 -57 -19 -108
-44z"/>
<path d="M2267 4486 c-5 -14 2 -16 51 -14 53 1 54 2 12 5 -24 3 -47 9 -51 15
-4 5 -9 3 -12 -6z"/>
<path d="M2415 4463 c11 -3 24 -10 28 -17 6 -7 7 -6 4 4 -2 8 -14 16 -28 17
-19 1 -20 1 -4 -4z"/>
<path d="M14197 4464 c19 -5 23 -13 26 -57 l4 -52 -1 55 c-1 51 -3 55 -26 57
-21 1 -22 1 -3 -3z"/>
<path d="M3672 4420 c0 -19 2 -27 5 -17 2 9 2 25 0 35 -3 9 -5 1 -5 -18z"/>
<path d="M8391 4409 c-95 -48 -132 -120 -129 -254 1 -58 1 -57 8 20 9 108 24
147 69 188 56 50 118 71 194 64 36 -3 54 -1 42 3 -46 19 -120 11 -184 -21z"/>
<path d="M9850 4426 l-75 -11 -11 -68 c-10 -60 -9 -67 5 -63 9 3 53 15 99 27
45 12 80 24 78 26 -2 2 -40 -6 -85 -18 -45 -12 -84 -19 -87 -16 -4 3 -2 28 2
54 l9 48 105 16 c58 9 89 17 70 17 -19 -1 -69 -6 -110 -12z"/>
<path d="M2170 4413 c-124 -25 -110 -4 -108 -161 l2 -137 6 135 5 135 80 14
c44 8 82 16 84 18 12 9 -11 8 -69 -4z"/>
<path d="M2452 4247 c-2 -163 -1 -177 14 -163 27 28 57 39 119 46 l60 7 -50 2
c-33 1 -64 -6 -90 -19 -22 -11 -40 -20 -42 -20 -1 0 -4 73 -6 163 l-3 162 -2
-178z"/>
<path d="M8578 4362 c-22 -60 -15 -67 7 -7 10 25 16 47 14 50 -3 2 -12 -17
-21 -43z"/>
<path d="M14010 4398 c0 -9 -3 -25 -6 -35 -4 -13 -3 -15 4 -5 10 15 15 -4 28
-106 4 -29 9 -51 11 -48 7 7 -18 178 -28 196 -7 13 -8 13 -9 -2z"/>
<path d="M14737 4403 c18 -2 50 -2 70 0 21 2 7 4 -32 4 -38 0 -55 -2 -38 -4z"/>
<path d="M2242 4380 c0 -14 5 -59 12 -100 8 -41 14 -64 14 -50 0 14 -5 59 -12
100 -8 41 -14 64 -14 50z"/>
<path d="M14858 4393 c7 -3 16 -2 19 1 4 3 -2 6 -13 5 -11 0 -14 -3 -6 -6z"/>
<path d="M7867 4384 c17 -4 23 -14 26 -42 l4 -37 -1 40 c-1 35 -4 40 -26 42
-21 1 -21 0 -3 -3z"/>
<path d="M3660 4369 c0 -8 -18 -135 -40 -284 -22 -148 -39 -276 -38 -285 2 -8
23 117 47 278 23 161 40 296 37 299 -3 4 -6 0 -6 -8z"/>
<path d="M7775 4370 c-27 -7 -27 -8 -5 -8 14 0 36 4 50 8 20 6 21 8 5 8 -11 0
-33 -4 -50 -8z"/>
<path d="M14703 4305 c0 -38 2 -53 4 -32 2 20 2 52 0 70 -2 17 -4 1 -4 -38z"/>
<path d="M7714 4345 c-3 -8 -4 -20 -1 -27 3 -7 6 -3 6 9 1 12 7 24 14 26 9 4
9 6 -1 6 -7 1 -15 -6 -18 -14z"/>
<path d="M14884 4150 c0 -118 2 -167 3 -107 2 59 2 155 0 215 -1 59 -3 10 -3
-108z"/>
<path d="M15325 4350 l-60 -7 57 -1 c31 -1 60 3 63 8 3 6 5 9 3 8 -2 -1 -30
-4 -63 -8z"/>
<path d="M13905 4320 c-86 -28 -153 -83 -190 -155 -27 -55 -30 -69 -30 -160 0
-81 4 -106 18 -129 16 -24 24 -28 53 -23 41 7 105 51 159 108 36 38 33 37 -19
-10 -63 -56 -123 -91 -155 -91 -33 0 -45 37 -46 140 0 78 4 104 23 145 41 89
103 138 222 176 30 9 48 17 40 18 -8 0 -42 -9 -75 -19z"/>
<path d="M15224 4327 c-3 -8 -3 -47 -1 -88 l3 -74 2 82 c2 68 5 82 20 86 16 4
16 5 -1 6 -10 0 -20 -5 -23 -12z"/>
<path d="M15397 4296 c-4 -27 -6 -67 -6 -90 1 -25 5 -11 10 39 10 89 6 128 -4
51z"/>
<path d="M14232 4208 l-2 -127 46 24 c119 63 212 11 244 -138 l9 -42 -4 52
c-5 60 -43 126 -86 149 -39 19 -106 17 -156 -6 l-42 -19 -4 117 -3 117 -2
-127z"/>
<path d="M1813 4265 c-1 -27 3 -77 7 -110 6 -54 7 -56 7 -15 1 25 -3 74 -7
110 -7 62 -7 62 -7 15z"/>
<path d="M6599 4279 c-41 -44 -40 -90 5 -135 19 -19 44 -34 56 -34 12 0 37 15
56 34 26 26 34 43 34 69 0 48 -46 97 -90 97 -23 0 -40 -9 -61 -31z m115 -5
c37 -37 35 -86 -3 -125 -16 -16 -39 -29 -51 -29 -12 0 -35 13 -51 29 -38 39
-39 84 -2 123 34 36 72 36 107 2z"/>
<path d="M8039 4281 c-49 -49 -35 -128 28 -160 35 -18 53 -13 89 23 38 38 43
70 19 116 -30 58 -90 67 -136 21z m115 -12 c35 -41 34 -83 -3 -120 -36 -36
-60 -37 -100 -3 -25 21 -31 33 -31 65 0 83 83 119 134 58z"/>
<path d="M8480 4297 c-31 -15 -60 -72 -59 -112 1 -25 3 -22 10 14 12 61 32 87
76 99 21 5 29 10 18 11 -11 0 -31 -5 -45 -12z"/>
<path d="M8569 4279 c-41 -44 -40 -90 5 -135 19 -19 44 -34 56 -34 31 0 90 62
90 94 0 93 -92 138 -151 75z m115 -10 c35 -41 34 -83 -3 -120 -16 -16 -39 -29
-51 -29 -35 0 -80 53 -80 93 0 79 85 115 134 56z"/>
<path d="M14529 4279 c-47 -51 -32 -133 30 -158 38 -16 64 -8 96 30 29 35 32
67 10 109 -30 59 -91 67 -136 19z m115 -10 c35 -41 34 -83 -3 -120 -16 -16
-39 -29 -51 -29 -12 0 -35 13 -51 29 -38 39 -40 88 -3 125 37 36 75 34 108 -5z"/>
<path d="M7722 4270 c0 -19 2 -27 5 -17 2 9 2 25 0 35 -3 9 -5 1 -5 -18z"/>
<path d="M7903 4225 c0 -44 2 -61 4 -37 2 23 2 59 0 80 -2 20 -4 1 -4 -43z"/>
<path d="M7736 4170 c3 -36 8 -76 11 -91 4 -22 1 -26 -34 -35 -31 -7 -38 -14
-39 -34 -1 -22 0 -22 3 -3 3 18 13 24 44 29 44 7 44 3 24 119 l-14 80 5 -65z"/>
<path d="M14713 4175 c0 -33 3 -94 7 -135 l7 -75 0 60 c0 33 -3 94 -7 135 l-7
75 0 -60z"/>
<path d="M2276 4150 c3 -30 14 -104 24 -165 11 -60 17 -85 14 -55 -3 30 -14
105 -24 165 -11 61 -17 85 -14 55z"/>
<path d="M6452 4190 c32 -5 67 -14 77 -20 11 -5 23 -10 28 -10 4 1 -5 8 -20
16 -16 9 -54 17 -85 19 l-57 4 57 -9z"/>
<path d="M8988 4193 c12 -2 30 -2 40 0 9 3 -1 5 -23 4 -22 0 -30 -2 -17 -4z"/>
<path d="M6334 4176 c-83 -36 -149 -131 -158 -227 l-6 -54 13 60 c25 115 80
183 182 222 16 6 23 12 15 12 -8 0 -29 -6 -46 -13z"/>
<path d="M8893 4169 c-50 -25 -98 -77 -124 -133 l-19 -41 0 43 c0 25 -5 44
-12 47 -7 2 -49 -4 -93 -14 -44 -11 -71 -19 -60 -20 11 0 47 6 80 14 33 8 64
15 68 15 4 0 6 -90 5 -199 -2 -110 0 -197 5 -194 4 2 7 41 7 86 l1 82 21 -40
c38 -75 126 -146 178 -144 8 0 -3 7 -24 15 -119 43 -191 170 -166 290 19 89
91 172 175 202 17 6 23 11 15 11 -8 1 -34 -8 -57 -20z"/>
<path d="M9085 4175 c50 -18 57 -18 25 0 -14 8 -34 14 -45 14 -11 0 -2 -6 20
-14z"/>
<path d="M14052 4170 c-1 -14 3 -43 7 -65 6 -26 9 -31 9 -15 1 14 -3 43 -7 65
-6 26 -9 31 -9 15z"/>
<path d="M10502 4165 c-46 -7 -85 -15 -86 -17 -2 -1 -5 -64 -8 -138 -3 -74 -2
-112 1 -85 6 45 8 40 18 -65 11 -107 11 -109 7 -25 -2 50 -7 138 -10 196 -8
122 -15 113 91 125 33 4 69 10 80 15 27 11 6 9 -93 -6z"/>
<path d="M16925 4165 l-70 -14 65 6 c36 3 72 9 80 14 19 10 12 10 -75 -6z"/>
<path d="M2977 4159 c34 -4 75 -15 91 -23 35 -18 79 -69 97 -111 36 -85 35
-83 28 -50 -23 114 -125 197 -238 194 -33 -1 -28 -3 22 -10z"/>
<path d="M4241 4153 c-59 -21 -128 -90 -137 -138 -20 -110 27 -237 110 -292
26 -18 53 -33 60 -33 6 1 -5 10 -25 20 -82 43 -139 144 -139 246 0 68 10 94
55 137 46 45 121 71 185 65 113 -11 182 -85 207 -220 37 -200 76 -271 163
-293 14 -3 5 5 -20 17 -80 41 -117 128 -130 303 -4 55 -8 84 -9 65 l-1 -35
-21 43 c-55 110 -178 157 -298 115z"/>
<path d="M5075 4165 c-5 -2 -31 -6 -57 -10 l-48 -6 0 -112 c0 -133 -20 -237
-55 -287 -26 -38 -86 -77 -139 -91 -28 -8 -27 -8 8 -4 87 10 157 87 180 199 8
37 17 71 20 74 3 3 7 -24 7 -59 1 -35 4 -55 6 -45 3 11 0 84 -7 164 -7 79 -10
146 -7 148 3 3 40 11 83 18 44 8 66 14 49 14 -16 0 -34 -1 -40 -3z"/>
<path d="M5231 4155 c-18 -8 -37 -12 -42 -9 -5 3 -9 -2 -9 -11 0 -9 3 -15 8
-13 90 47 163 49 207 8 14 -13 25 -26 25 -30 0 -4 -34 -34 -76 -68 -42 -34
-73 -62 -69 -62 9 0 127 94 144 114 29 34 -42 86 -116 86 -21 -1 -53 -7 -72
-15z"/>
<path d="M6925 4154 c-53 -18 -114 -69 -131 -108 l-13 -31 -1 33 c0 18 -6 35
-12 37 -7 2 -49 -4 -93 -14 -44 -11 -71 -19 -60 -20 11 0 47 6 80 14 33 8 64
15 68 15 4 0 6 -90 5 -199 -2 -110 0 -197 5 -194 4 2 7 50 8 106 1 79 3 95 10
71 26 -91 131 -185 204 -183 29 1 29 1 -5 8 -49 10 -90 34 -126 73 -42 44 -60
81 -72 149 -14 76 1 132 48 179 123 123 326 75 381 -90 7 -19 17 -42 24 -50 7
-8 20 -76 30 -150 24 -177 25 -180 72 -179 21 1 52 5 68 9 19 5 5 6 -36 3 -78
-6 -67 -29 -100 207 -16 112 -25 157 -30 140 -5 -16 -7 -19 -8 -7 -2 34 -50
115 -86 145 -63 51 -149 65 -230 36z"/>
<path d="M10355 4160 l-40 -7 37 -2 c20 0 40 4 43 9 3 6 5 9 3 9 -2 -1 -21 -5
-43 -9z"/>
<path d="M10658 4151 c-34 -17 -37 -17 -41 -2 -3 9 -5 4 -6 -11 l-1 -27 43 24
c68 40 165 28 197 -22 8 -12 10 -13 7 -3 -2 8 -18 25 -37 38 -41 27 -110 29
-162 3z"/>
<path d="M11865 4160 c-12 -5 4 -6 40 -3 33 3 62 7 64 9 9 8 -85 2 -104 -6z"/>
<path d="M17068 4151 c-33 -17 -37 -17 -41 -2 -3 9 -5 3 -6 -12 l-1 -28 29 22
c58 43 177 34 203 -14 9 -17 7 -24 -14 -41 -90 -77 -120 -106 -101 -97 12 6
25 15 28 21 3 5 19 19 35 30 l30 21 -5 -33 c-5 -31 -4 -31 4 -6 26 78 102 134
203 148 l63 9 -64 -4 c-49 -2 -74 -10 -111 -33 -38 -24 -50 -27 -54 -16 -19
49 -132 69 -198 35z"/>
<path d="M2834 4130 c-29 -16 -62 -45 -74 -65 l-22 -36 -28 44 c-15 24 -36 47
-46 51 -12 5 -7 -5 14 -27 19 -19 39 -51 46 -72 l13 -38 12 35 c14 44 63 91
121 117 25 11 38 21 30 21 -8 0 -38 -13 -66 -30z"/>
<path d="M4860 4150 c-16 -6 -6 -7 30 -3 30 3 57 7 59 9 8 7 -64 2 -89 -6z"/>
<path d="M9957 4147 c-3 -8 -2 -20 3 -26 5 -9 8 -4 8 13 0 29 -3 32 -11 13z"/>
<path d="M12026 4135 c56 -28 88 -66 115 -134 10 -25 18 -40 19 -33 0 23 40
72 83 103 22 16 35 29 28 29 -6 0 -36 -24 -66 -53 -48 -47 -55 -50 -59 -31
-15 57 -110 144 -158 144 -6 0 11 -11 38 -25z"/>
<path d="M15383 4105 c0 -33 2 -45 4 -27 2 18 2 45 0 60 -2 15 -4 0 -4 -33z"/>
<path d="M17547 4135 c56 -28 97 -79 118 -147 8 -24 14 -35 14 -25 1 25 -25
85 -55 124 -24 32 -89 73 -116 73 -6 0 11 -11 39 -25z"/>
<path d="M5897 4136 c-57 -21 -106 -65 -107 -95 0 -8 10 1 23 19 39 59 79 75
187 75 70 -1 103 -5 127 -18 18 -9 36 -17 40 -17 4 1 -10 10 -31 22 -52 27
-184 35 -239 14z"/>
<path d="M6563 4138 c-6 -7 -23 -36 -39 -65 l-28 -51 -53 5 c-70 8 -103 -13
-103 -64 0 -66 85 -122 166 -110 22 3 19 4 -14 6 -100 3 -178 94 -125 146 13
14 29 16 75 12 57 -5 58 -5 78 29 11 19 29 50 41 69 20 34 21 48 2 23z"/>
<path d="M8465 4140 l-40 -7 37 -2 c20 0 40 4 43 9 3 6 5 9 3 9 -2 -1 -21 -5
-43 -9z"/>
<path d="M9104 4086 l-37 -64 -57 5 c-49 5 -60 3 -79 -16 -61 -61 23 -163 131
-160 l43 2 -50 6 c-59 8 -86 21 -114 57 -26 34 -27 66 -1 89 16 14 30 17 75
12 54 -5 55 -5 75 29 11 19 29 50 41 69 11 19 18 35 15 35 -3 0 -22 -29 -42
-64z"/>
<path d="M10264 4136 c-3 -8 -4 -23 -1 -33 3 -12 5 -9 6 9 1 19 7 28 24 31
l22 4 -23 2 c-12 0 -25 -5 -28 -13z"/>
<path d="M11264 4137 c-3 -8 -4 -34 -1 -58 3 -43 4 -42 5 9 l2 54 53 -7 c28
-3 61 -9 72 -11 16 -4 17 -3 5 4 -8 5 -41 13 -73 17 -45 5 -58 3 -63 -8z"/>
<path d="M11778 4117 c-23 -18 -53 -50 -64 -71 -20 -36 -23 -37 -32 -19 -15
27 -81 71 -117 77 l-30 6 33 -12 c44 -18 99 -63 123 -102 l19 -31 0 29 c0 42
37 94 89 127 24 16 40 29 34 29 -6 0 -31 -15 -55 -33z"/>
<path d="M12446 4142 c-2 -4 12 -6 32 -4 62 6 69 10 20 11 -26 0 -49 -3 -52
-7z"/>
<path d="M15210 4101 c0 -39 -4 -51 -17 -54 -14 -4 -12 -5 5 -6 20 -1 22 3 22
54 0 30 -2 55 -5 55 -3 0 -5 -22 -5 -49z"/>
<path d="M16614 4135 c-10 -8 -41 -15 -69 -16 l-50 -2 55 -6 c40 -4 56 -3 58
6 4 14 25 20 82 26 30 3 28 4 -11 5 -26 1 -53 -4 -65 -13z"/>
<path d="M16814 4136 c-3 -8 -4 -23 -1 -33 3 -12 5 -9 6 9 1 16 8 28 19 31 16
4 16 5 -1 6 -10 0 -20 -5 -23 -13z"/>
<path d="M5487 4120 c-44 -24 -84 -81 -92 -130 -5 -31 -4 -30 9 9 16 47 55 95
98 117 88 46 217 -23 270 -143 57 -128 17 -260 -92 -307 -19 -8 -29 -15 -22
-16 23 0 87 38 100 60 l14 22 26 -25 c30 -27 71 -51 78 -44 3 2 -9 10 -25 17
-16 6 -37 20 -46 30 -16 17 -16 23 -1 67 11 36 13 59 6 93 -14 69 -12 74 16
41 14 -17 61 -49 105 -72 43 -23 79 -45 79 -50 0 -12 -63 -11 -97 2 -15 5 -36
20 -46 32 -10 12 -17 16 -15 8 11 -39 97 -71 153 -57 38 10 20 27 -75 77 -91
47 -105 60 -130 125 -11 27 -19 41 -20 31 0 -13 -10 -6 -33 24 -74 98 -178
133 -260 89z"/>
<path d="M7911 4098 c-1 -27 3 -48 7 -48 4 0 6 17 4 38 -5 58 -10 62 -11 10z"/>
<path d="M10935 4126 c-16 -8 -42 -26 -57 -42 -127 -136 -28 -404 162 -438 25
-4 19 0 -18 13 -74 26 -122 68 -157 136 -26 50 -30 70 -30 135 0 67 4 82 27
118 36 54 68 74 127 80 61 5 114 -20 169 -83 118 -134 87 -342 -56 -385 -17
-5 -20 -9 -9 -9 44 -2 111 57 136 119 8 20 10 9 12 -55 2 -78 3 -77 9 35 4 63
7 153 7 200 l-1 85 -6 -100 c-3 -55 -7 -83 -8 -63 -3 49 -34 130 -67 174 -58
76 -167 112 -240 80z"/>
<path d="M12561 4124 c0 -11 3 -14 6 -6 3 7 2 16 -1 19 -3 4 -6 -2 -5 -13z"/>
<path d="M16741 4124 c1 -32 46 -290 48 -272 1 21 -39 281 -45 287 -2 2 -4 -4
-3 -15z"/>
<path d="M4832 4060 c-3 -91 -18 -197 -34 -227 -16 -31 -46 -30 -54 3 -4 14
-5 80 -2 147 2 67 1 111 -3 97 -4 -14 -7 -75 -8 -136 -1 -95 2 -115 18 -135
l18 -23 25 25 c20 20 28 43 37 110 7 46 11 113 9 149 l-4 65 -2 -75z"/>
<path d="M7560 4121 c55 -8 66 -15 91 -55 10 -17 19 -25 19 -17 0 7 -15 28
-34 47 -29 29 -40 34 -77 33 l-44 -2 45 -6z"/>
<path d="M8523 4085 c0 -27 2 -38 4 -22 2 15 2 37 0 50 -2 12 -4 0 -4 -28z"/>
<path d="M12362 4120 c-85 -10 -85 -16 -2 -15 49 0 70 4 70 13 0 6 -1 11 -2
11 -2 -1 -31 -5 -66 -9z"/>
<path d="M12877 4116 c-20 -8 -44 -20 -53 -27 -13 -10 -17 -10 -25 2 -7 11 -9
9 -9 -8 0 -27 7 -29 31 -7 48 43 151 56 192 24 47 -38 60 -95 55 -243 -3 -75
-1 -115 3 -92 12 62 10 223 -3 267 -6 21 -27 52 -45 68 -38 34 -82 38 -146 16z"/>
<path d="M4690 4104 c-33 -13 -33 -14 -5 -8 17 3 34 10 40 15 11 11 8 11 -35
-7z"/>
<path d="M7450 4101 c-25 -14 -37 -16 -42 -8 -5 7 -8 2 -8 -12 0 -18 3 -21 13
-13 7 6 33 20 58 31 24 11 37 20 29 20 -8 0 -31 -8 -50 -18z"/>
<path d="M10095 4098 c-38 -11 -74 -24 -79 -28 -4 -5 26 2 67 14 42 12 79 25
83 29 9 9 13 10 -71 -15z"/>
<path d="M11433 4113 c-13 -2 -23 -9 -23 -14 0 -6 5 -7 11 -3 6 3 34 10 63 14
46 7 47 7 11 7 -22 0 -50 -2 -62 -4z"/>
<path d="M7265 4101 c-11 -5 10 -6 50 -3 39 2 72 6 74 8 8 8 -105 2 -124 -5z"/>
<path d="M8218 4103 c6 -2 18 -2 25 0 6 3 1 5 -13 5 -14 0 -19 -2 -12 -5z"/>
<path d="M12703 4103 c15 -2 39 -2 55 0 15 2 2 4 -28 4 -30 0 -43 -2 -27 -4z"/>
<path d="M16416 4079 c-29 -20 -58 -51 -76 -83 -18 -31 -30 -44 -30 -32 0 11
-3 17 -6 14 -3 -3 -2 -23 2 -43 l7 -37 17 52 c20 60 69 115 125 141 22 10 33
19 24 19 -8 0 -37 -14 -63 -31z"/>
<path d="M9918 4093 c6 -2 18 -2 25 0 6 3 1 5 -13 5 -14 0 -19 -2 -12 -5z"/>
<path d="M10173 4055 c0 -27 2 -38 4 -22 2 15 2 37 0 50 -2 12 -4 0 -4 -28z"/>
<path d="M12572 4080 c-1 -14 5 -56 12 -95 8 -38 14 -59 14 -45 1 14 -5 57
-12 95 -8 39 -14 59 -14 45z"/>
<path d="M12634 4086 c-3 -8 -4 -25 -1 -38 3 -18 5 -16 6 9 1 21 7 33 19 36
16 4 16 5 -1 6 -10 0 -20 -5 -23 -13z"/>
<path d="M1833 4040 c0 -30 2 -43 4 -27 2 15 2 39 0 55 -2 15 -4 2 -4 -28z"/>
<path d="M4600 4080 c-20 -6 -21 -8 -5 -8 11 0 29 3 40 8 25 11 -1 11 -35 0z"/>
<path d="M6144 4033 c-20 -32 -38 -60 -40 -62 -1 -1 -26 5 -54 14 -85 28 -84
5 1 -53 98 -66 120 -91 126 -144 6 -53 -20 -91 -81 -119 -23 -10 -35 -19 -27
-19 26 0 88 42 106 72 21 36 16 91 -10 132 -10 15 -53 50 -97 78 -43 28 -76
53 -74 56 3 2 26 -3 52 -12 26 -9 51 -16 54 -16 7 0 19 17 74 103 10 15 16 27
12 27 -3 0 -22 -26 -42 -57z"/>
<path d="M8135 4075 l-50 -14 45 6 c25 3 54 9 65 14 31 12 -4 9 -60 -6z"/>
<path d="M9788 4077 c-75 -11 -73 -9 -82 -117 l-5 -65 14 80 c7 44 14 81 14
83 1 1 11 2 24 2 12 1 51 7 87 14 76 16 45 17 -52 3z"/>
<path d="M10815 4064 c-16 -15 -45 -40 -64 -57 -32 -29 -35 -29 -47 -12 -8 10
-14 22 -14 26 0 11 -28 19 -44 13 -29 -11 -37 -58 -33 -214 l3 -155 2 161 c2
145 4 164 22 185 l20 24 29 -34 29 -35 63 54 c35 30 68 57 74 62 6 5 6 8 0 8
-6 0 -23 -12 -40 -26z"/>
<path d="M14600 4070 c-41 -10 -66 -18 -55 -19 11 0 47 6 80 14 33 8 63 15 68
15 4 0 6 -89 5 -197 l-3 -197 -65 -17 c-36 -9 -59 -18 -52 -18 21 -2 106 21
120 32 9 7 12 57 10 206 -3 165 -5 196 -18 198 -8 0 -49 -7 -90 -17z"/>
<path d="M7239 4042 c5 -34 6 -35 9 -8 2 16 0 32 -5 37 -5 5 -7 -7 -4 -29z"/>
<path d="M10272 4060 c0 -14 2 -19 5 -12 2 6 2 18 0 25 -3 6 -5 1 -5 -13z"/>
<path d="M16823 4025 c0 -33 2 -45 4 -27 2 18 2 45 0 60 -2 15 -4 0 -4 -33z"/>
<path d="M2054 3855 c0 -121 2 -169 3 -107 2 62 2 161 0 220 -1 59 -3 8 -3
-113z"/>
<path d="M7948 4063 c7 -3 16 -2 19 1 4 3 -2 6 -13 5 -11 0 -14 -3 -6 -6z"/>
<path d="M9533 4015 c0 -33 2 -45 4 -27 2 18 2 45 0 60 -2 15 -4 0 -4 -33z"/>
<path d="M15772 4045 c0 -16 2 -22 5 -12 2 9 2 23 0 30 -3 6 -5 -1 -5 -18z"/>
<path d="M8048 4053 c6 -2 18 -2 25 0 6 3 1 5 -13 5 -14 0 -19 -2 -12 -5z"/>
<path d="M14076 4010 c3 -30 14 -104 24 -165 11 -60 17 -85 14 -55 -3 30 -14
105 -24 165 -11 61 -17 85 -14 55z"/>
<path d="M15040 4047 c-51 -16 -137 -105 -146 -151 -16 -88 17 -160 98 -214
32 -21 56 -27 110 -30 38 -3 74 0 78 4 5 5 -25 9 -70 9 -71 0 -82 3 -122 30
-109 77 -117 215 -17 300 42 35 71 46 144 55 l60 7 -50 1 c-27 0 -66 -5 -85
-11z"/>
<path d="M2917 4032 c-10 -10 -17 -32 -17 -49 l0 -31 61 18 c34 10 64 22 68
25 10 11 -48 55 -73 55 -13 0 -30 -8 -39 -18z m74 -2 c32 -18 22 -37 -25 -49
-58 -14 -56 -15 -56 12 0 42 38 60 81 37z"/>
<path d="M4285 4025 c-14 -13 -25 -35 -25 -49 l0 -25 66 19 c37 11 69 21 71
24 10 9 -47 56 -67 56 -11 0 -32 -11 -45 -25z m73 -1 c12 -8 22 -18 22 -22 0
-7 -78 -32 -100 -32 -17 0 -11 29 10 50 24 24 38 25 68 4z"/>
<path d="M6965 4025 c-14 -13 -25 -35 -25 -49 l0 -25 66 19 c37 11 69 21 71
24 10 9 -47 56 -67 56 -11 0 -32 -11 -45 -25z m73 -1 c12 -8 22 -18 22 -22 0
-7 -78 -32 -100 -32 -17 0 -11 29 10 50 24 24 38 25 68 4z"/>
<path d="M7971 4034 c0 -11 3 -14 6 -6 3 7 2 16 -1 19 -3 4 -6 -2 -5 -13z"/>
<path d="M11887 4038 c-9 -7 -20 -30 -23 -50 l-7 -37 68 19 c37 11 69 21 72
23 2 2 -4 14 -14 26 -23 27 -72 37 -96 19z m71 -14 c12 -8 22 -18 22 -22 0 -7
-78 -32 -100 -32 -15 0 -12 23 6 48 18 26 41 28 72 6z"/>
<path d="M13434 3955 c3 -120 27 -188 87 -239 73 -62 166 -71 322 -32 117 30
191 61 184 78 -2 7 -17 61 -32 121 -16 59 -30 105 -32 103 -4 -3 32 -151 53
-218 6 -19 -64 -48 -191 -79 -251 -60 -369 21 -386 265 l-7 101 2 -100z"/>
<path d="M17406 4026 c-15 -14 -26 -36 -26 -50 0 -20 4 -23 23 -18 18 5 19 7
5 10 -24 5 -23 27 2 52 24 24 38 25 68 4 31 -21 28 -29 -15 -42 l-38 -11 35 6
c56 9 64 16 43 41 -30 35 -68 38 -97 8z"/>
<path d="M5193 4013 c-15 -23 -18 -52 -19 -188 l-1 -160 7 160 c3 88 10 168
14 177 12 27 34 29 56 6 11 -12 20 -17 20 -11 0 13 -33 43 -48 43 -6 0 -20
-12 -29 -27z"/>
<path d="M6585 4015 c2 -16 10 -83 16 -148 7 -64 14 -115 17 -113 6 7 -20 248
-30 271 -6 15 -7 13 -3 -10z"/>
<path d="M8020 4034 c0 -5 9 -85 20 -179 11 -93 20 -176 20 -184 0 -8 3 -12 6
-9 6 7 -33 369 -41 377 -3 2 -5 0 -5 -5z"/>
<path d="M8557 3985 c3 -33 7 -62 9 -64 7 -8 2 74 -6 99 -5 16 -6 2 -3 -35z"/>
<path d="M15362 3885 c-7 -88 -16 -189 -19 -225 -3 -36 -3 -63 0 -60 7 7 40
404 35 427 -2 10 -9 -54 -16 -142z"/>
<path d="M17046 4024 c-23 -22 -27 -49 -23 -139 l3 -80 2 91 c2 75 6 96 22
115 l20 24 20 -24 c11 -13 20 -19 20 -14 0 10 -32 43 -43 43 -3 0 -13 -7 -21
-16z"/>
<path d="M8445 4022 c-6 -4 -8 -37 -4 -82 l5 -75 2 77 2 77 38 4 37 4 -35 1
c-19 1 -39 -2 -45 -6z"/>
<path d="M3791 3959 c1 -48 3 -56 8 -31 5 29 13 12 56 -129 32 -104 55 -164
65 -166 10 -3 11 -2 3 4 -6 4 -37 91 -68 193 -32 102 -59 187 -61 189 -2 2 -3
-25 -3 -60z"/>
<path d="M10258 3949 c-9 -88 -21 -127 -44 -136 -27 -10 -37 13 -45 104 l-8
88 4 -94 c2 -78 6 -97 21 -108 16 -12 21 -10 41 9 25 26 46 115 41 176 -2 25
-5 13 -10 -39z"/>
<path d="M12642 3990 c0 -19 2 -27 5 -17 2 9 2 25 0 35 -3 9 -5 1 -5 -18z"/>
<path d="M8212 3847 l2 -162 3 152 c3 134 6 152 21 155 14 3 12 5 -5 10 l-23
6 2 -161z"/>
<path d="M8263 3950 c0 -36 2 -50 4 -32 2 17 2 47 0 65 -2 17 -4 3 -4 -33z"/>
<path d="M9992 3990 c0 -14 2 -19 5 -12 2 6 2 18 0 25 -3 6 -5 1 -5 -13z"/>
<path d="M15765 3943 c5 -76 33 -163 64 -200 25 -30 90 -73 110 -73 9 0 -2 9
-24 19 -81 37 -125 113 -144 256 l-10 70 4 -72z"/>
<path d="M2552 3993 c-21 -8 -41 -57 -46 -114 l-6 -54 14 63 c15 72 49 118 67
92 6 -9 9 -65 6 -145 -2 -79 -1 -112 4 -85 12 73 11 224 -3 238 -13 13 -16 13
-36 5z"/>
<path d="M14314 3975 c-25 -38 -43 -140 -42 -230 l1 -80 8 105 c10 128 21 177
49 204 18 18 22 19 31 6 11 -16 6 -229 -6 -265 -6 -19 -6 -19 5 -2 17 27 26
238 11 265 -15 29 -37 28 -57 -3z"/>
<path d="M16235 3959 c-50 -52 -122 -99 -151 -99 -29 0 -41 17 -52 75 -5 28
-10 39 -11 25 0 -14 4 -42 10 -62 13 -48 44 -58 101 -32 41 18 172 134 153
134 -6 0 -29 -19 -50 -41z"/>
<path d="M11420 3975 c-15 -18 -24 -86 -16 -119 5 -21 13 -26 36 -26 42 0 62
34 58 101 -2 45 -6 54 -23 57 -18 2 -18 2 -2 -8 22 -14 23 -87 1 -118 -24 -35
-58 -26 -62 17 -4 43 4 75 24 95 8 9 11 16 6 16 -5 0 -15 -7 -22 -15z"/>
<path d="M12334 3965 c-22 -34 -23 -121 -1 -162 14 -26 24 -33 47 -33 38 0 60
40 60 110 0 70 -22 110 -60 110 -21 0 -35 -8 -46 -25z m80 -7 c10 -14 16 -44
16 -78 0 -61 -19 -100 -50 -100 -29 0 -54 46 -54 100 0 83 52 129 88 78z"/>
<path d="M16514 3964 c-61 -91 13 -249 82 -173 27 30 28 147 0 178 -26 29 -62
27 -82 -5z m83 -14 c29 -57 5 -170 -36 -170 -49 0 -76 94 -47 163 13 33 19 38
43 35 17 -2 32 -12 40 -28z"/>
<path d="M1843 3930 c0 -30 2 -43 4 -27 2 15 2 39 0 55 -2 15 -4 2 -4 -28z"/>
<path d="M7434 3955 c-15 -22 -15 -37 -6 -118 l10 -92 -5 95 c-5 88 -3 97 16
114 32 29 45 8 52 -82 l6 -77 1 67 c1 37 -2 78 -8 92 -12 34 -44 34 -66 1z"/>
<path d="M7922 3903 l2 -78 3 72 c4 65 6 72 26 76 18 4 17 5 -5 6 l-28 1 2
-77z"/>
<path d="M12831 3954 c-12 -15 -21 -38 -20 -53 1 -24 2 -23 9 6 15 63 54 85
66 37 4 -15 5 -77 2 -138 -3 -70 -2 -94 3 -66 4 25 8 80 8 123 1 114 -24 147
-68 91z"/>
<path d="M17212 3960 c0 -14 2 -19 5 -12 2 6 2 18 0 25 -3 6 -5 1 -5 -13z"/>
<path d="M7683 3895 c1 -60 2 -66 4 -25 4 59 13 70 55 70 23 0 27 -5 31 -32 4
-31 4 -31 5 6 l2 39 -45 -5 c-35 -4 -45 -2 -48 11 -3 9 -4 -20 -4 -64z"/>
<path d="M14733 3895 c0 -38 2 -53 4 -32 2 20 2 52 0 70 -2 17 -4 1 -4 -38z"/>
<path d="M16833 3910 c0 -30 3 -86 7 -125 7 -68 7 -69 7 -15 0 30 -3 87 -7
125 -7 68 -7 69 -7 15z"/>
<path d="M5382 3930 c0 -14 2 -19 5 -12 2 6 2 18 0 25 -3 6 -5 1 -5 -13z"/>
<path d="M9516 3848 c-4 -57 -9 -119 -11 -138 -4 -31 -4 -32 4 -9 10 30 26
249 18 249 -2 0 -7 -46 -11 -102z"/>
<path d="M9998 3933 c-8 -30 23 -150 53 -204 26 -45 59 -74 99 -83 14 -4 6 3
-18 15 -66 33 -107 114 -121 239 -5 39 -8 49 -13 33z"/>
<path d="M12052 3922 c-51 -14 -91 -27 -88 -29 3 -3 89 16 149 33 14 4 17 -1
17 -30 0 -32 -5 -38 -42 -58 -31 -16 -61 -22 -106 -22 -56 -1 -66 2 -84 24
l-20 24 39 12 38 13 -40 -6 c-22 -3 -41 -7 -43 -8 -1 -1 3 -14 9 -28 24 -52
125 -60 209 -17 21 11 42 20 45 20 3 0 5 -16 5 -36 0 -19 4 -33 8 -30 5 3 19
-8 31 -25 28 -37 107 -89 135 -89 13 1 7 6 -17 14 -94 34 -164 134 -155 221 3
25 5 44 4 44 0 -1 -43 -13 -94 -27z"/>
<path d="M12652 3920 c0 -19 2 -27 5 -17 2 9 2 25 0 35 -3 9 -5 1 -5 -18z"/>
<path d="M15117 3932 c-43 -47 -51 -142 -14 -166 47 -32 89 6 103 93 12 72
-46 120 -89 73z m74 -13 c16 -32 2 -107 -26 -135 -29 -28 -38 -30 -60 -7 -21
21 -16 99 9 137 21 32 61 35 77 5z"/>
<path d="M3158 3933 c7 -3 16 -2 19 1 4 3 -2 6 -13 5 -11 0 -14 -3 -6 -6z"/>
<path d="M4475 3925 c-54 -17 -33 -18 30 -1 28 8 41 14 30 14 -11 0 -38 -5
-60 -13z"/>
<path d="M5542 3928 c-36 -36 6 -159 56 -166 27 -4 52 14 51 37 0 11 -3 9 -9
-6 -24 -59 -100 0 -100 76 0 44 10 61 35 61 27 0 42 -17 62 -67 l14 -38 -6 35
c-10 61 -70 101 -103 68z"/>
<path d="M7073 3907 c-68 -18 -123 -35 -123 -39 0 -4 11 -20 24 -35 22 -25 30
-28 88 -27 45 0 75 6 105 22 23 12 45 22 48 22 3 0 6 -15 6 -32 2 -32 2 -33 6
-4 7 43 -9 51 -56 26 -79 -40 -176 -36 -200 8 -9 16 2 21 127 54 75 20 128 36
117 36 -11 0 -75 -14 -142 -31z"/>
<path d="M9902 3923 c-40 -9 -71 -18 -68 -20 5 -6 127 17 146 28 20 11 10 10
-78 -8z"/>
<path d="M10970 3914 c-14 -36 -12 -53 10 -101 19 -43 52 -62 85 -50 19 8 29
49 21 91 -14 73 -95 116 -116 60z m78 -7 c25 -27 37 -75 28 -112 -9 -34 -48
-34 -75 1 -60 76 -16 178 47 111z"/>
<path d="M17555 3917 c-44 -11 -75 -22 -70 -23 6 -2 51 7 100 20 50 13 81 24
70 24 -11 0 -56 -9 -100 -21z"/>
<path d="M3013 3902 c-111 -28 -124 -40 -82 -78 31 -28 129 -26 192 5 26 13
46 25 44 28 -3 2 -22 -5 -43 -16 -43 -23 -113 -36 -148 -27 -25 6 -56 31 -56
46 0 4 50 20 110 35 61 15 110 29 110 31 0 7 -22 3 -127 -24z"/>
<path d="M17221 3909 c-2 -59 101 -209 143 -209 6 0 -4 11 -22 23 -54 41 -94
103 -111 174 -7 30 -9 33 -10 12z"/>
<path d="M14531 3828 l-1 -96 -76 -18 c-42 -10 -72 -20 -66 -22 9 -3 112 21
147 34 12 5 15 -2 16 -32 1 -22 3 -30 5 -19 2 11 -2 72 -10 135 l-13 115 -2
-97z"/>
<path d="M4408 3903 c7 -3 16 -2 19 1 4 3 -2 6 -13 5 -11 0 -14 -3 -6 -6z"/>
<path d="M8572 3880 c0 -19 5 -78 12 -130 8 -52 14 -79 14 -60 0 19 -5 78 -12
130 -8 52 -14 79 -14 60z"/>
<path d="M12602 3885 c0 -16 2 -22 5 -12 2 9 2 23 0 30 -3 6 -5 -1 -5 -18z"/>
<path d="M14874 3755 c0 -88 2 -123 3 -77 2 46 2 118 0 160 -1 42 -3 5 -3 -83z"/>
<path d="M4318 3887 c-27 -6 -48 -14 -48 -18 0 -4 11 -21 24 -36 22 -25 30
-28 88 -27 45 0 75 6 106 23 24 12 46 21 47 19 2 -2 5 -28 7 -58 l3 -54 -60
-25 c-43 -17 -80 -24 -130 -24 -60 0 -64 -1 -30 -8 50 -9 127 5 185 34 l45 22
-3 55 c-2 30 -7 59 -11 63 -5 5 -28 -1 -51 -13 -79 -40 -189 -34 -198 11 -2
11 12 20 50 31 60 18 47 20 -24 5z"/>
<path d="M5391 3882 c-3 -82 103 -211 186 -227 25 -5 25 -4 -5 7 -76 30 -145
110 -168 196 -7 26 -13 37 -13 24z"/>
<path d="M9788 3893 c6 -2 18 -2 25 0 6 3 1 5 -13 5 -14 0 -19 -2 -12 -5z"/>
<path d="M3783 3835 c0 -33 2 -45 4 -27 2 18 2 45 0 60 -2 15 -4 0 -4 -33z"/>
<path d="M6181 3877 c-4 -72 126 -208 196 -207 10 1 2 7 -18 14 -76 27 -145
100 -167 177 -6 19 -11 26 -11 16z"/>
<path d="M9690 3878 c0 -10 27 -9 60 2 20 6 17 8 -17 6 -24 0 -43 -4 -43 -8z"/>
<path d="M9966 3814 c-9 -42 -15 -79 -12 -81 2 -2 11 30 21 72 9 42 15 79 12
81 -2 2 -11 -30 -21 -72z"/>
<path d="M11710 3876 c0 -36 -49 -104 -97 -135 -25 -17 -42 -31 -35 -31 21 0
97 66 117 102 l20 36 28 -49 c27 -50 97 -110 126 -108 10 0 7 5 -9 12 -66 32
-109 80 -136 154 -7 21 -13 29 -14 19z"/>
<path d="M17448 3883 c7 -3 16 -2 19 1 4 3 -2 6 -13 5 -11 0 -14 -3 -6 -6z"/>
<path d="M12665 3835 c9 -92 27 -206 32 -201 2 2 -3 55 -12 118 -17 119 -29
168 -20 83z"/>
<path d="M17390 3875 c0 -2 5 -15 11 -29 24 -51 126 -59 209 -16 59 30 49 31
-22 3 -76 -31 -142 -28 -171 8 -18 22 -18 23 0 30 16 7 15 8 -4 8 -13 1 -23
-1 -23 -4z"/>
<path d="M1848 3833 c6 -65 10 -70 11 -15 0 28 -3 52 -7 52 -4 0 -6 -17 -4
-37z"/>
<path d="M2321 3857 c-2 -29 19 -160 29 -184 8 -19 17 -23 54 -23 25 0 56 4
70 10 25 9 26 12 24 87 l-2 78 -3 -76 c-3 -69 -6 -77 -26 -83 -21 -6 -106 -8
-108 -3 0 1 -9 49 -19 107 -9 58 -18 97 -19 87z"/>
<path d="M2750 3803 l0 -71 -77 -19 c-43 -10 -71 -19 -63 -20 8 -2 44 5 80 15
l65 17 6 50 c3 28 7 44 7 37 1 -7 20 -32 43 -57 42 -45 93 -70 164 -79 l40 -5
-35 10 c-19 6 -52 15 -73 20 -51 13 -105 64 -133 124 l-24 50 0 -72z"/>
<path d="M7786 3810 c7 -79 31 -225 32 -190 0 14 -8 77 -18 140 -12 72 -17 91
-14 50z"/>
<path d="M8274 3745 c0 -71 1 -99 3 -62 2 37 2 96 0 130 -2 34 -3 4 -3 -68z"/>
<path d="M10392 3850 c0 -14 2 -19 5 -12 2 6 2 18 0 25 -3 6 -5 1 -5 -13z"/>
<path d="M12823 3825 c0 -27 2 -38 4 -22 2 15 2 37 0 50 -2 12 -4 0 -4 -28z"/>
<path d="M8453 3790 c0 -41 2 -58 4 -37 2 20 2 54 0 75 -2 20 -4 3 -4 -38z"/>
<path d="M6547 3778 c5 -76 5 -76 -23 -92 -16 -8 -24 -15 -18 -16 7 0 22 8 34
18 22 18 23 22 12 93 l-10 74 5 -77z"/>
<path d="M9117 3779 c5 -73 4 -78 -18 -90 -13 -7 -49 -16 -79 -20 l-55 -6 50
-1 c34 -1 60 4 83 18 27 17 32 25 31 57 0 21 -4 56 -9 78 -6 29 -7 19 -3 -36z"/>
<path d="M12616 3795 c3 -33 10 -67 15 -75 9 -16 7 3 -11 90 -9 41 -9 40 -4
-15z"/>
<path d="M17665 3797 l4 -59 -45 -19 c-24 -11 -63 -24 -87 -28 -31 -7 -35 -9
-15 -10 32 -1 132 34 146 52 7 8 7 32 2 67 l-9 55 4 -58z"/>
<path d="M16792 3810 c-1 -14 3 -43 7 -65 6 -26 9 -31 9 -15 1 14 -3 43 -7 65
-6 26 -9 31 -9 15z"/>
<path d="M7933 3750 c0 -41 2 -58 4 -37 2 20 2 54 0 75 -2 20 -4 3 -4 -38z"/>
<path d="M10377 3798 c-16 -60 -114 -137 -174 -138 -13 0 -23 -4 -23 -9 0 -11
62 4 101 24 49 26 123 124 106 141 -2 3 -7 -5 -10 -18z"/>
<path d="M14743 3760 c0 -36 2 -50 4 -32 2 17 2 47 0 65 -2 17 -4 3 -4 -33z"/>
<path d="M3181 3778 c-1 -31 -6 -40 -33 -55 -18 -9 -55 -23 -83 -30 l-50 -13
43 5 c50 6 120 39 128 60 3 7 4 26 1 42 -3 24 -4 22 -6 -9z"/>
<path d="M7671 3785 c0 -16 -4 -41 -6 -55 l-6 -25 11 25 c6 13 9 38 7 55 l-4
30 -2 -30z"/>
<path d="M5002 3749 c-2 -68 13 -92 53 -86 l30 4 -32 2 c-36 1 -40 10 -46 91
-3 42 -4 42 -5 -11z"/>
<path d="M7487 3733 c-3 -32 -2 -62 3 -67 4 -4 42 0 85 10 43 10 73 20 67 22
-6 2 -37 -4 -70 -12 -85 -23 -83 -24 -75 44 3 33 4 60 1 60 -3 0 -8 -26 -11
-57z"/>
<path d="M16347 3772 c4 -18 -1 -24 -26 -33 -18 -6 -30 -14 -27 -16 3 -3 19 2
37 11 31 16 34 15 58 -8 52 -48 142 -77 188 -59 17 6 8 8 -35 9 -69 0 -127 27
-171 80 -22 28 -29 32 -24 16z"/>
<path d="M3566 3729 c-4 -28 -5 -53 -3 -56 3 -2 8 19 12 47 4 28 5 53 2 56 -2
3 -7 -19 -11 -47z"/>
<path d="M7231 3762 c-1 -26 -59 -57 -134 -71 -31 -7 -35 -9 -15 -10 33 -1
132 35 148 54 6 8 10 22 7 32 -4 14 -5 13 -6 -5z"/>
<path d="M3773 3715 c0 -33 2 -45 4 -27 2 18 2 45 0 60 -2 15 -4 0 -4 -33z"/>
<path d="M12151 3757 c-1 -21 -67 -53 -134 -66 -31 -7 -35 -9 -15 -10 34 -1
132 35 148 54 7 8 10 20 7 27 -3 8 -6 6 -6 -5z"/>
<path d="M12833 3725 c0 -27 2 -38 4 -22 2 15 2 37 0 50 -2 12 -4 0 -4 -28z"/>
<path d="M1863 3710 c0 -30 2 -43 4 -27 2 15 2 39 0 55 -2 15 -4 2 -4 -28z"/>
<path d="M17013 3715 c0 -27 2 -38 4 -22 2 15 2 37 0 50 -2 12 -4 0 -4 -28z"/>
<path d="M6623 3700 c0 -25 2 -35 4 -22 2 12 2 32 0 45 -2 12 -4 2 -4 -23z"/>
<path d="M7441 3703 c-1 -23 3 -44 7 -47 4 -2 6 12 4 32 -5 56 -10 62 -11 15z"/>
<path d="M10444 3700 c1 -33 3 -35 39 -36 37 -1 37 -1 3 3 -31 4 -35 8 -39 36
-4 31 -4 31 -3 -3z"/>
<path d="M14122 3700 c0 -19 2 -27 5 -17 2 9 2 25 0 35 -3 9 -5 1 -5 -18z"/>
<path d="M9908 3713 c6 -2 18 -2 25 0 6 3 1 5 -13 5 -14 0 -19 -2 -12 -5z"/>
<path d="M16200 3699 c-36 -11 -105 -24 -155 -28 -89 -8 -89 -8 -24 -10 61 -1
213 29 249 50 23 13 1 9 -70 -12z"/>
<path d="M8461 3683 c-1 -27 -6 -32 -38 -42 l-38 -11 35 5 c44 7 53 16 47 51
l-4 29 -2 -32z"/>
<path d="M9823 3703 c15 -2 37 -2 50 0 12 2 0 4 -28 4 -27 0 -38 -2 -22 -4z"/>
<path d="M11412 3608 c1 -107 6 -95 10 30 2 39 0 72 -4 72 -5 0 -7 -46 -6
-102z"/>
<path d="M11485 3700 l-50 -7 45 -1 c25 0 54 3 65 8 23 10 12 10 -60 0z"/>
<path d="M12435 3689 c-22 -10 -34 -19 -27 -19 7 0 22 5 33 11 16 8 23 7 33
-6 11 -16 17 -16 82 3 38 11 62 21 54 21 -8 0 -37 -6 -64 -14 -62 -19 -64 -19
-68 3 -3 18 -4 18 -43 1z"/>
<path d="M16854 3685 c1 -16 8 -20 36 -21 34 -1 34 -1 3 3 -19 3 -33 11 -36
21 -3 12 -4 11 -3 -3z"/>
<path d="M9685 3695 c-5 -2 -46 -7 -90 -11 -44 -4 -73 -9 -65 -11 8 -2 71 3
140 11 69 7 103 14 75 14 -27 0 -54 -1 -60 -3z"/>
<path d="M12952 3683 c-35 -8 -62 -17 -59 -19 2 -2 39 4 83 15 43 10 70 19 59
19 -11 0 -48 -7 -83 -15z"/>
<path d="M16620 3689 c-12 -8 -11 -9 6 -4 14 4 24 0 28 -10 3 -8 10 -15 16
-15 5 0 2 9 -7 20 -20 23 -23 23 -43 9z"/>
<path d="M16725 3685 c-54 -17 -33 -18 30 -1 28 8 41 14 30 14 -11 0 -38 -5
-60 -13z"/>
<path d="M17390 3690 c8 -5 28 -10 44 -10 39 0 30 6 -19 13 -27 4 -35 3 -25
-3z"/>
<path d="M8175 3680 c-16 -7 -17 -9 -3 -9 9 -1 20 4 23 9 7 11 7 11 -20 0z"/>
<path d="M11903 3683 c9 -2 23 -2 30 0 6 3 -1 5 -18 5 -16 0 -22 -2 -12 -5z"/>
<path d="M14753 3645 c0 -27 2 -38 4 -22 2 15 2 37 0 50 -2 12 -4 0 -4 -28z"/>
<path d="M6680 3665 c-25 -7 -36 -13 -25 -13 11 0 38 5 60 13 52 17 24 17 -35
0z"/>
<path d="M8650 3665 c-25 -7 -36 -13 -25 -13 11 0 38 5 60 13 52 17 24 17 -35
0z"/>
<path d="M6423 3663 c15 -2 37 -2 50 0 12 2 0 4 -28 4 -27 0 -38 -2 -22 -4z"/>
<path d="M7942 3645 c0 -16 2 -22 5 -12 2 9 2 23 0 30 -3 6 -5 -1 -5 -18z"/>
<path d="M8100 3660 c-20 -6 -21 -8 -5 -8 11 0 29 3 40 8 25 11 -1 11 -35 0z"/>
<path d="M12353 3663 c9 -2 23 -2 30 0 6 3 -1 5 -18 5 -16 0 -22 -2 -12 -5z"/>
<path d="M12841 3654 c0 -11 3 -14 6 -6 3 7 2 16 -1 19 -3 4 -6 -2 -5 -13z"/>
<path d="M14190 3660 l-55 -7 50 -1 c28 -1 57 3 65 8 8 5 11 9 5 8 -5 -1 -35
-4 -65 -8z"/>
<path d="M3583 3653 c9 -2 25 -2 35 0 9 3 1 5 -18 5 -19 0 -27 -2 -17 -5z"/>
<path d="M5113 3653 c9 -2 25 -2 35 0 9 3 1 5 -18 5 -19 0 -27 -2 -17 -5z"/>
<path d="M5910 3650 c25 -8 147 -13 139 -6 -2 2 -40 6 -84 8 -44 3 -69 2 -55
-2z"/>
<path d="M10553 3653 c9 -2 25 -2 35 0 9 3 1 5 -18 5 -19 0 -27 -2 -17 -5z"/>
<path d="M16958 3653 c12 -2 30 -2 40 0 9 3 -1 5 -23 4 -22 0 -30 -2 -17 -4z"/>
<path d="M1871 3634 c0 -11 3 -14 6 -6 3 7 2 16 -1 19 -3 4 -6 -2 -5 -13z"/>
<path d="M3658 3643 c12 -2 30 -2 40 0 9 3 -1 5 -23 4 -22 0 -30 -2 -17 -4z"/>
<path d="M5618 3643 c7 -3 16 -2 19 1 4 3 -2 6 -13 5 -11 0 -14 -3 -6 -6z"/>
<path d="M3728 3633 c6 -2 18 -2 25 0 6 3 1 5 -13 5 -14 0 -19 -2 -12 -5z"/>
<path d="M12798 3633 c6 -2 18 -2 25 0 6 3 1 5 -13 5 -14 0 -19 -2 -12 -5z"/>
<path d="M15200 3630 c8 -5 20 -10 25 -10 6 0 3 5 -5 10 -8 5 -19 10 -25 10
-5 0 -3 -5 5 -10z"/>
<path d="M2003 3623 c9 -2 23 -2 30 0 6 3 -1 5 -18 5 -16 0 -22 -2 -12 -5z"/>
<path d="M8315 3620 c-27 -7 -27 -8 -5 -8 14 0 36 4 50 8 20 6 21 8 5 8 -11 0
-33 -4 -50 -8z"/>
<path d="M11234 3545 c0 -49 1 -71 3 -48 2 23 2 64 0 90 -2 26 -3 8 -3 -42z"/>
<path d="M12728 3623 c12 -2 30 -2 40 0 9 3 -1 5 -23 4 -22 0 -30 -2 -17 -4z"/>
<path d="M1900 3610 c-17 -6 -9 -7 25 -3 28 3 52 7 54 9 8 7 -54 2 -79 -6z"/>
<path d="M15240 3617 c0 -3 20 -12 45 -20 45 -16 65 -14 23 2 -43 16 -68 22
-68 18z"/>
<path d="M7861 3599 c-18 -6 -31 -12 -29 -14 2 -2 26 2 53 10 28 7 41 13 30
13 -11 0 -35 -4 -54 -9z"/>
<path d="M14838 3593 c7 -3 16 -2 19 1 4 3 -2 6 -13 5 -11 0 -14 -3 -6 -6z"/>
<path d="M14773 3583 c9 -2 25 -2 35 0 9 3 1 5 -18 5 -19 0 -27 -2 -17 -5z"/>
<path d="M11302 3468 c-35 -11 -61 -22 -59 -24 2 -3 37 6 78 20 41 13 67 24
59 24 -8 0 -43 -9 -78 -20z"/>
</g>
</svg>
